<?xml version="1.0" encoding="UTF-8"?>
<svg data-name="Layer 2" xmlns="http://www.w3.org/2000/svg" width="170" height="32.951" viewBox="0 0 170 32.951">
  <g data-name="Layer 1">
    <g>
      <path d="M78.918,14.2c.074.038.074.076,0,.113v-.113Z" style="fill: #fff;"/>
      <g>
        <path d="M0,32.896v-6.458c.433.021.875-.027,1.308-.005,7.09.366,14.311.046,21.406,0,5.07-.033,10.777.357,15.753.003,2.304-.163,4.417-1.044,4.255-3.686-.219-3.554-4.881-2.874-7.308-3.116l-35.414.005v-6.345l36.32.005c.928-.226,1.89-.035,2.825-.121,4.88-.448,4.956-6.305-.453-6.682-4.791-.334-10.514-.089-15.403-.12-7.762-.05-15.529.049-23.29.005V.037c9.875.084,19.759-.11,29.634-.005,3.765.04,9.589-.278,13.056.768,7.097,2.141,9.723,10.129,4.454,15.625,1.08,1.28,2.017,2.555,2.452,4.209,1.499,5.7-2.347,10.518-7.807,11.731-2.777.617-6.429.493-9.322.536-10.817.162-21.651-.132-32.468-.005Z" style="fill: #fff;"/>
        <g>
          <path d="M119.878.037c5.004.029,10.013-.037,15.018-.005,5.612.036,11.522-.036,17.109.227,8.752.411,17.381,5.475,17.96,15.012.669,11.024-8.373,16.969-18.413,17.403-10.397.449-20.866-.012-31.283.228-.116.025-.391-.082-.391-.176v-6.119c0-.094.275-.2.391-.176,8.912-.027,17.846.109,26.741-.112,2.159-.054,4.293.058,6.449-.236,13.015-1.774,12.761-18.678-2.14-19.474-7.993-.427-16.449-.191-24.468-.11-1.927.019-4.764.215-6.582.001-.114-.013-.391-.052-.391-.176V.037Z" style="fill: #fff;"/>
          <g>
            <path d="M112.4.037l.005,12.865c-.379,6.881-3.676,7.549-9.801,7.761-3.9.135-7.83-.111-11.732-.005v12.067c0,.012-.158.17-.17.17h-8.385c-.012,0-.17-.158-.17-.17V14.37c0-.012.158-.17.17-.17h19.375c.071,0,.717-.132.856-.164,2.399-.553,2.502-2.415,2.605-4.534.151-3.11-.122-6.344-.005-9.466h7.252Z" style="fill: #fff;"/>
            <path d="M73.196,14.2c-.064.273.143.25.333.285.603.111.966.04,1.545-.056.213-.035.454.128.389-.229,1.13.033,2.279.086,3.399.227-.057.141.104.285.113.34.012.067-.005.152,0,.227.035.547-.122,1.225.113,1.7,0,.038,0,.076,0,.113-.041.034-.08.071-.113.113-.196.245-.132,2.299-.118,2.782.006.216-.011.429.118.618-.022.087.034.228-.008.331-.07.034-.147,0-.218.009.014-.396.07-.313-.278-.34-.4-.031-.967-.03-1.37-.005-.227.014-.791-.037-.732.345-3.141.021-6.454.121-9.579.005-6.542-.244-9.024-1.378-9.348-8.328-.189-4.045.151-8.239.005-12.298h7.195c.012,0,.17.158.17.17v10.991c0,.659.644,1.915,1.209,2.304,1.526,1.048,5.281.666,7.176.699Z" style="fill: #fff;"/>
            <path d="M76.369,20.659c-.059-.383.504-.331.732-.345.403-.025.97-.026,1.37.005.348.027.292-.056.278.34-.706.079-1.639-.005-2.379,0Z" style="fill: #fff;"/>
            <path d="M79.088,16.919c.006,1.017.124,2.468-.113,3.399-.129-.189-.111-.402-.118-.618-.014-.483-.078-2.536.118-2.782h.113Z" style="fill: #fff;"/>
            <path d="M75.462,14.2c.065.357-.176.193-.389.229-.579.096-.942.168-1.545.056-.19-.035-.397-.012-.333-.285.753.013,1.514-.022,2.266,0Z" style="fill: #fff;"/>
            <path d="M79.088,16.693c-.235-.475-.078-1.153-.113-1.7h.113c.017.564-.004,1.135,0,1.7Z" style="fill: #fff;"/>
            <path d="M78.861,14.427c.073.009.153-.01.226,0,.01.112-.009.228,0,.34h-.113c-.01-.055-.171-.199-.113-.34Z" style="fill: #fff;"/>
            <path d="M79.088,14.993h-.113c-.005-.075.012-.159,0-.227h.113c.006.075-.002.152,0,.227Z" style="fill: #fff;"/>
            <path d="M79.088,16.919h-.113c.034-.042.072-.079.113-.113,0,.038,0,.076,0,.113Z" style="fill: #fff;"/>
          </g>
        </g>
      </g>
    </g>
  </g>
</svg>