<?xml version="1.0" encoding="UTF-8"?>
<svg version="1.1" xmlns="http://www.w3.org/2000/svg" width="684" height="347">
<path d="M0 0 C7.41460363 -0.02255577 14.82918865 -0.04091784 22.24381924 -0.05181217 C25.68640348 -0.05703982 29.12896312 -0.06413531 32.5715332 -0.07543945 C36.52555043 -0.08834235 40.47955756 -0.09322918 44.43359375 -0.09765625 C46.29605995 -0.10539818 46.29605995 -0.10539818 48.19615173 -0.11329651 C49.33725906 -0.11337204 50.47836639 -0.11344757 51.65405273 -0.11352539 C52.664431 -0.115746 53.67480927 -0.11796661 54.71580505 -0.12025452 C57 0 57 0 58 1 C58.16387307 4.55968725 58.25496937 8.11700843 58.328125 11.6796875 C58.64637306 15.16941762 58.64637306 15.16941762 61.484375 16.8203125 C62.31453125 17.20960937 63.1446875 17.59890625 64 18 C65.27469407 20.54938815 65.12016184 22.33040998 65.11352539 25.18408203 C65.11341209 26.80553635 65.11341209 26.80553635 65.11329651 28.45974731 C65.10813522 29.63060883 65.10297394 30.80147034 65.09765625 32.0078125 C65.0962413 33.20356903 65.09482635 34.39932556 65.09336853 35.63131714 C65.08775663 39.46256987 65.07520208 43.29376484 65.0625 47.125 C65.05748653 49.71744707 65.05292336 52.30989506 65.04882812 54.90234375 C65.03778333 61.26824898 65.02103359 67.63412037 65 74 C65.77306992 73.99149017 66.54613983 73.98298035 67.34263611 73.97421265 C70.8833497 73.94019933 74.42402876 73.91921948 77.96484375 73.8984375 C79.1808728 73.88482178 80.39690186 73.87120605 81.64978027 73.85717773 C97.61063414 73.78697266 110.81333912 77.51558356 122.4296875 88.8984375 C126.94448621 94.9406308 128.59208176 100.28362063 128.48242188 107.76757812 C128.48633438 108.60445663 128.49024689 109.44133514 128.49427795 110.30357361 C128.50022111 112.10682935 128.49714088 113.91013343 128.4858551 115.71336365 C128.46849685 118.57295302 128.47615264 121.43154004 128.4901123 124.2911377 C128.51966297 131.38984619 128.50658309 138.48835885 128.49493408 145.58709717 C128.48671394 151.59578432 128.49473088 157.60403097 128.52406311 163.61265564 C128.53112772 166.4201545 128.51451898 169.22686516 128.49694824 172.03430176 C128.50265889 173.7670127 128.50947754 175.49972046 128.51757812 177.23242188 C128.50626358 178.00460556 128.49494904 178.77678925 128.48329163 179.57237244 C128.55405823 185.93764218 130.39015358 191.36910643 134.9375 195.953125 C149.52134504 205.12326999 165.31224885 206.66609659 182 203 C189.77164032 200.91811599 195.60633789 196.98340193 201 191 C201.91535732 188.25392805 202.13383904 186.59840872 202.15821838 183.766922 C202.1680072 182.90455429 202.17779602 182.04218658 202.18788147 181.15368652 C202.19363693 180.21069702 202.1993924 179.26770752 202.20532227 178.29614258 C202.21522186 177.3008403 202.22512146 176.30553802 202.23532104 175.28007507 C202.26694945 171.98491813 202.29169886 168.68974676 202.31640625 165.39453125 C202.33697461 163.11194989 202.35797105 160.82937235 202.37937927 158.54679871 C202.43461207 152.53479096 202.48401607 146.52274877 202.53222656 140.51068115 C202.58243273 134.37753224 202.63812342 128.24443344 202.69335938 122.11132812 C202.80095575 110.07426154 202.90239748 98.03715148 203 86 C202.38125 85.731875 201.7625 85.46375 201.125 85.1875 C199 84 199 84 197 81 C196.8046875 77.86328125 196.8046875 77.86328125 196.875 74.3125 C196.89304687 73.13300781 196.91109375 71.95351562 196.9296875 70.73828125 C196.95289063 69.83464844 196.97609375 68.93101563 197 68 C197.99 68 198.98 68 200 68 C200 65.36 200 62.72 200 60 C201.32 59.67 202.64 59.34 204 59 C204 61.97 204 64.94 204 68 C206.64 68 209.28 68 212 68 C212 65.03 212 62.06 212 59 C212.99 59 213.98 59 215 59 C215 61.97 215 64.94 215 68 C216.32 68 217.64 68 219 68 C219.6887148 79.82293733 219.6887148 79.82293733 217.125 83.6875 C215 86 215 86 213 87 C212.99635437 88.28515503 212.99270874 89.57031006 212.98895264 90.89440918 C212.95197787 103.01817198 212.89417765 115.14168137 212.81609726 127.26525116 C212.77662358 133.49780821 212.74443433 139.73022399 212.72900391 145.96289062 C212.71383695 151.980132 212.67938979 157.99698499 212.63169098 164.01405334 C212.61687775 166.30726237 212.60895902 168.60052685 212.60811615 170.89378357 C212.60574468 174.11124867 212.57864871 177.32764204 212.54589844 180.54492188 C212.55344398 181.96049377 212.55344398 181.96049377 212.56114197 183.40466309 C212.44809935 190.60404155 210.66855008 195.81359267 206.02734375 201.35546875 C192.81617331 212.93684994 176.96968077 215.55094562 159.90380859 214.92285156 C146.18511589 213.99860229 133.59489825 209.39520697 124.1875 199.125 C119.68302112 192.69003017 118.55495163 186.84940264 118.63110352 179.20068359 C118.6254538 177.94054695 118.6254538 177.94054695 118.61968994 176.654953 C118.61329239 174.84514858 118.61355444 173.03531052 118.61987495 171.22550583 C118.62903489 168.35816917 118.61870703 165.49147945 118.60325623 162.62417603 C118.5632823 154.47732453 118.56195752 146.33052707 118.56420898 138.18359375 C118.56426011 133.1881096 118.5450869 128.19297751 118.51487541 123.19758987 C118.50406695 120.37786233 118.5161674 117.55881087 118.52870178 114.73910522 C118.51979686 113.00623916 118.5097223 111.27337858 118.49829102 109.54052734 C118.50803452 108.76115311 118.51777802 107.98177887 118.52781677 107.17878723 C118.44886499 101.1715199 116.55379799 97.55948574 112.24609375 93.2421875 C98.0148357 82.48421705 82.74748657 83.70989946 65 83 C65 127.88 65 172.76 65 219 C85.26148438 218.96519531 105.52296875 218.93039063 126.3984375 218.89453125 C139.19531326 218.87921195 151.99218342 218.86462867 164.7890625 218.85351562 C171.50813824 218.84764165 178.22721378 218.8415801 184.94628906 218.83520508 C185.7884623 218.83441383 186.63063553 218.83362259 187.49832916 218.83280736 C201.10991091 218.81974519 214.72145479 218.79608593 228.33301406 218.76854161 C242.29319455 218.7405266 256.25335516 218.72383203 270.21356261 218.71773452 C278.83375035 218.71360994 287.45383112 218.70056433 296.07398595 218.6762506 C301.97823882 218.66044154 307.88243606 218.65558862 313.78670858 218.65949587 C317.19757862 218.66142499 320.60826123 218.65838538 324.01909828 218.64238358 C327.71009943 218.62757571 331.40063354 218.63100361 335.09164429 218.63923645 C336.17917508 218.63049793 337.26670586 218.6217594 338.38719213 218.61275607 C339.86141651 218.62171579 339.86141651 218.62171579 341.3654232 218.63085651 C342.21827506 218.62971735 343.07112693 218.62857819 343.94982278 218.62740451 C344.62638126 218.75036102 345.30293975 218.87331753 346 219 C348.77022203 223.15533305 348.36770597 226.55414851 348.375 231.4375 C348.39949219 232.29666016 348.42398437 233.15582031 348.44921875 234.04101562 C348.45308594 234.87181641 348.45695312 235.70261719 348.4609375 236.55859375 C348.46915527 237.31454834 348.47737305 238.07050293 348.48583984 238.84936523 C347.79164233 241.92232295 346.42714602 243.02949495 344 245 C341.29565859 245.50024599 341.29565859 245.50024599 338.13098907 245.50057125 C336.9237202 245.51038554 335.71645133 245.52019983 334.47259855 245.53031152 C333.13118455 245.52097216 331.78977312 245.51125659 330.44836426 245.50120544 C329.02470102 245.50509712 327.60104167 245.5107365 326.17739153 245.51797634 C322.2604707 245.53276841 318.34395034 245.52252777 314.42704225 245.50823963 C310.204754 245.4971549 305.98252309 245.50906413 301.76023865 245.51808167 C293.4869059 245.53203324 285.21372552 245.52444384 276.9404 245.50940608 C267.31108162 245.49256813 257.68180144 245.49575344 248.05247289 245.49950016 C230.87430655 245.50538225 213.69621345 245.49119349 196.51806641 245.46655273 C179.83932754 245.44263094 163.16068654 245.43554803 146.48193359 245.44604492 C128.33128784 245.45744765 110.18068737 245.45939218 92.03004217 245.44494683 C90.09554387 245.44342094 88.16104556 245.44190059 86.22654724 245.44038582 C85.274672 245.439628 84.32279676 245.43887019 83.34207681 245.43808941 C76.62579523 245.43334159 69.90953384 245.43520155 63.19325256 245.43945122 C55.01125533 245.4443719 46.82935073 245.43842032 38.64737475 245.41855692 C34.4707073 245.40866792 30.29418107 245.40359706 26.11750603 245.41144943 C22.29684211 245.41848565 18.47646365 245.41175027 14.65583748 245.3938458 C13.2709745 245.38978787 11.88608568 245.39082363 10.50123221 245.39736467 C8.62383403 245.40547569 6.74638074 245.39344131 4.86901093 245.38031673 C3.82466999 245.3792876 2.78032905 245.37825848 1.70434141 245.37719816 C-1.4267801 244.94047324 -2.80695004 244.26328057 -5 242 C-5.39554919 238.93126051 -5.53114912 236.21986076 -5.49447632 233.14878845 C-5.49930515 232.23292058 -5.50413398 231.31705271 -5.50910914 230.37343127 C-5.52041882 227.2915551 -5.50303158 224.21050156 -5.48583984 221.12866211 C-5.48798473 218.92459386 -5.49186096 216.72052671 -5.49734497 214.51646423 C-5.50705962 208.52072021 -5.4917089 202.52527278 -5.47143888 196.52956462 C-5.45390833 190.26577116 -5.45739217 184.00198742 -5.4581604 177.73817444 C-5.45628584 167.21887739 -5.43900769 156.69967678 -5.41162109 146.18041992 C-5.38343886 135.34999503 -5.36927981 124.51967105 -5.37060547 113.68920898 C-5.37068538 113.02204095 -5.37076529 112.35487292 -5.37084763 111.66748767 C-5.37092834 111.00148874 -5.37100905 110.33548981 -5.3710922 109.6493091 C-5.37240102 97.953427 -5.36211492 86.25757914 -5.34550858 74.56170845 C-5.3384316 69.57568604 -5.33478047 64.58967824 -5.33372116 59.60365105 C-5.33171786 53.73747291 -5.31955402 47.87140151 -5.29938889 42.00525856 C-5.29352783 39.84688851 -5.29109037 37.68850618 -5.29224396 35.53012848 C-5.29321947 32.59471335 -5.28197261 29.65960101 -5.26742554 26.72422791 C-5.27052274 25.86052753 -5.27361995 24.99682715 -5.276811 24.10695404 C-5.22835775 18.22835775 -5.22835775 18.22835775 -3 16 C-2.01 16 -1.02 16 0 16 C0 10.72 0 5.44 0 0 Z " fill="#FEFEFE" transform="translate(294,22)"/>
<path d="M0 0 C1.30939041 -0.00630432 2.61878082 -0.01260864 3.96784973 -0.019104 C5.39352553 -0.01551987 6.8192001 -0.01141684 8.24487305 -0.00683594 C9.72397424 -0.0081856 11.203075 -0.01012864 12.68217468 -0.01263428 C15.7865317 -0.01558148 18.89077358 -0.0113077 21.99511719 -0.00195312 C25.92709158 0.00933147 29.85878955 0.00295014 33.79075336 -0.00909805 C36.851313 -0.0164222 39.91181024 -0.01397929 42.97237206 -0.00884247 C44.41888653 -0.00752913 45.86540711 -0.00907011 47.31191444 -0.01380157 C66.72223793 -0.06328306 87.25271619 1.44346091 103.4440918 13.25878906 C104.14920898 13.77054688 104.85432617 14.28230469 105.58081055 14.80957031 C115.75372097 22.92852168 121.83651337 35.458258 123.4440918 48.25878906 C124.48175471 65.19827589 123.7801099 81.05325665 113.4440918 95.25878906 C112.99291992 95.89171875 112.54174805 96.52464844 112.0769043 97.17675781 C105.771411 105.24565177 96.57987895 110.04077669 87.4440918 114.25878906 C88.09635742 114.74347656 88.74862305 115.22816406 89.4206543 115.72753906 C109.06878614 130.79690272 116.20793123 155.98217884 124.88793945 178.28027344 C126.18678124 181.61195203 127.51533877 184.93049772 128.86206055 188.24316406 C129.19254395 189.06373291 129.52302734 189.88430176 129.86352539 190.72973633 C130.42923128 192.13379421 131.0004946 193.5356364 131.5793457 194.93432617 C133.67759152 200.22638075 135.29023138 205.7203703 133.4440918 211.25878906 C127.74075556 214.42129 121.05453474 213.59344634 114.72460938 213.57446289 C112.51666865 213.57130348 110.31007026 213.59478569 108.10229492 213.62011719 C106.68628097 213.62239066 105.27026345 213.62309345 103.85424805 213.62207031 C102.57686768 213.62505127 101.2994873 213.62803223 99.98339844 213.63110352 C96.1083841 213.22347457 93.71850356 212.34896728 90.4440918 210.25878906 C88.96019029 207.51619356 87.90783979 205.1067378 86.8815918 202.19628906 C86.56061523 201.34647461 86.23963867 200.49666016 85.90893555 199.62109375 C85.16806537 197.65520017 84.43687059 195.68564477 83.71313477 193.71337891 C81.44442627 187.53749871 79.11684568 181.38404921 76.78323364 175.23245239 C75.96809399 173.07239308 75.16519557 170.90809787 74.36376953 168.74291992 C71.65631635 161.50351352 68.71824883 154.45418807 65.2878418 147.52441406 C64.96505249 146.86785828 64.64226318 146.21130249 64.30969238 145.53485107 C62.37643582 141.72984278 60.12277672 138.56329327 57.4440918 135.25878906 C57.4440918 134.59878906 57.4440918 133.93878906 57.4440918 133.25878906 C56.11135798 132.5909247 54.77788554 131.92453412 53.4440918 131.25878906 C52.79053711 130.9171875 52.13698242 130.57558594 51.46362305 130.22363281 C45.80919118 127.59156984 40.72710057 126.89142186 34.58081055 126.63769531 C33.7962146 126.59874146 33.01161865 126.5597876 32.20324707 126.51965332 C30.28387306 126.42540161 28.36401575 126.34108104 26.4440918 126.25878906 C26.44631241 127.2669014 26.44853302 128.27501373 26.45082092 129.31367493 C26.47107455 138.80465192 26.48607468 148.29562455 26.49590397 157.78661823 C26.50112713 162.66626701 26.50821455 167.54589836 26.51953125 172.42553711 C26.53038019 177.13283141 26.53637291 181.84010894 26.53896904 186.54741478 C26.54081966 188.34518892 26.54443334 190.14296212 26.54982185 191.94072914 C26.55705887 194.45472844 26.55808161 196.96865801 26.55761719 199.48266602 C26.56121246 200.22929001 26.56480774 200.975914 26.56851196 201.74516296 C26.56226649 204.86034756 26.43723129 207.27937057 25.4440918 210.25878906 C19.11636029 214.08778569 12.66745784 213.70667056 5.4440918 213.63378906 C3.71932617 213.65119141 3.71932617 213.65119141 1.9597168 213.66894531 C-11.19120445 213.62349282 -11.19120445 213.62349282 -15.5559082 209.25878906 C-15.66255923 206.68003571 -15.70369281 204.12774312 -15.70307922 201.548172 C-15.70675591 200.73075694 -15.7104326 199.91334189 -15.7142207 199.07115668 C-15.72530296 196.3105338 -15.72910906 193.54994849 -15.73291016 190.78930664 C-15.73917146 188.81862263 -15.74581795 186.84793981 -15.75282288 184.8772583 C-15.77026546 179.50725532 -15.7807938 174.13726127 -15.78902841 168.76723695 C-15.79417234 165.41447623 -15.80024838 162.06171832 -15.80653954 158.70895958 C-15.82560188 148.22565399 -15.83983 137.74235549 -15.8481515 127.25903589 C-15.85792458 115.1457848 -15.88424166 103.03271643 -15.9246524 90.91952974 C-15.95478944 81.56577612 -15.96961815 72.21207492 -15.97293252 62.85827368 C-15.97528605 57.2677617 -15.98428567 51.67744467 -16.00939369 46.08698463 C-16.03263672 40.82650512 -16.03692276 35.56634942 -16.02663231 30.30583191 C-16.0261359 28.37488416 -16.03248729 26.44392068 -16.04618835 24.51302147 C-16.06385005 21.87639948 -16.05682953 19.24094667 -16.0436554 16.60432434 C-16.05462464 15.8404029 -16.06559389 15.07648146 -16.07689553 14.28941089 C-16.01488165 9.14747585 -14.81753241 6.21034086 -11.5559082 2.25878906 C-7.76377753 0.05695938 -4.32930277 0.00599724 0 0 Z M26.4440918 34.25878906 C26.4440918 53.72878906 26.4440918 73.19878906 26.4440918 93.25878906 C53.28619869 94.84044018 53.28619869 94.84044018 74.40893555 82.80566406 C79.73630016 76.13878935 81.14710078 68.64902747 80.83081055 60.25097656 C79.83363199 52.53543335 77.17034081 45.59461201 71.4440918 40.25878906 C58.08566221 31.44105375 41.64385037 34.25878906 26.4440918 34.25878906 Z " fill="#FEFEFE" transform="translate(24.555908203125,21.7412109375)"/>
<path d="M0 0 C0.91386475 0.00563965 1.82772949 0.0112793 2.76928711 0.01708984 C18.81972312 0.3024686 32.76884739 4.58059349 44.56640625 15.90625 C56.80178304 29.38924124 59.82514081 47.18701275 60.0625 64.75 C60.08920776 66.02919312 60.08920776 66.02919312 60.11645508 67.33422852 C60.1099624 72.39602011 59.62188287 75.96095852 56.75 80.3125 C53.04878569 82.77997621 50.2527494 82.58075955 45.97387695 82.53955078 C45.18339966 82.53984283 44.39292236 82.54013489 43.57849121 82.54043579 C40.96497634 82.53904214 38.35174634 82.52347938 35.73828125 82.5078125 C33.92653052 82.50408249 32.11477776 82.50123546 30.30302429 82.49923706 C25.53378737 82.49159964 20.7646722 82.4719502 15.9954834 82.4498291 C11.12916715 82.42937303 6.26283123 82.42023585 1.39648438 82.41015625 C-8.15239725 82.38870442 -17.7011885 82.35456714 -27.25 82.3125 C-26.79178172 84.88386448 -26.32738359 87.45385281 -25.859375 90.0234375 C-25.73095215 90.74781006 -25.6025293 91.47218262 -25.47021484 92.21850586 C-23.98994461 100.28643835 -21.6849965 105.88393209 -15.11328125 111.0625 C-3.88508956 118.5950395 11.65998332 117.51319478 24.4375 115.125 C30.99387015 113.66410805 37.22660524 111.55351223 43.5078125 109.203125 C46.84708548 108.28583074 48.53003026 108.09784949 51.75 109.3125 C54.44009645 113.34764467 54.0814193 116.39139232 54.0625 121.125 C54.07861328 121.91970703 54.09472656 122.71441406 54.11132812 123.53320312 C54.11543673 128.50050874 53.66020118 132.09969786 50.75 136.3125 C37.92914828 145.22152218 18.2794193 145.67167209 3.375 145.75 C2.14023926 145.7600708 0.90547852 145.7701416 -0.36669922 145.78051758 C-18.78289942 145.60715103 -34.61134421 141.01471222 -48.2890625 128.4375 C-63.86003759 111.97479506 -64.93880112 87.5666522 -64.38623047 66.18457031 C-63.46310304 46.7227942 -56.95487189 27.90631908 -42.6328125 14.3125 C-30.43188596 4.07172232 -15.70431564 -0.102633 0 0 Z M-17.5 32.55859375 C-24.43706264 39.51114091 -27.25 48.62539917 -27.25 58.3125 C-10.09 58.3125 7.07 58.3125 24.75 58.3125 C23.80543634 43.614973 23.80543634 43.614973 15.8125 32.3125 C5.78066847 24.44222333 -7.61301038 24.28621332 -17.5 32.55859375 Z " fill="#FEFEFE" transform="translate(219.25,89.6875)"/>
<path d="M0 0 C1.22783203 -0.01224609 2.45566406 -0.02449219 3.72070312 -0.03710938 C4.90470703 -0.03904297 6.08871094 -0.04097656 7.30859375 -0.04296875 C8.38810303 -0.04707764 9.4676123 -0.05118652 10.57983398 -0.05541992 C13.87732741 0.21314077 15.73155043 0.45079992 18.5625 2.1875 C22.49461738 7.18726677 25.18696735 13.16252731 27.98828125 18.84375 C28.38073532 19.63148804 28.77318939 20.41922607 29.17753601 21.23083496 C30.41383818 23.71451558 31.64450822 26.2009365 32.875 28.6875 C33.71902804 30.38560211 34.56342576 32.08352054 35.40820312 33.78125 C37.46391025 37.91455785 39.51457582 42.0503308 41.5625 46.1875 C44.76186427 42.37839998 46.74118245 38.02933162 48.90625 33.58984375 C49.74860505 31.88471975 50.59105587 30.17964305 51.43359375 28.47460938 C52.75218284 25.79387199 54.06878214 23.1121791 55.38330078 20.42944336 C56.65664604 17.83450926 57.93731132 15.24328836 59.21875 12.65234375 C59.60945679 11.84917221 60.00016357 11.04600067 60.40270996 10.2184906 C60.77319458 9.47083939 61.1436792 8.72318817 61.52539062 7.95288086 C62.00812439 6.96837196 62.00812439 6.96837196 62.50061035 5.963974 C64.03890332 3.39050747 65.56269333 1.55298944 68.40844727 0.51269531 C73.07145954 -0.19127526 77.79418613 -0.04021077 82.5 -0.0625 C84.12711914 -0.0934375 84.12711914 -0.0934375 85.78710938 -0.125 C86.83576172 -0.13015625 87.88441406 -0.1353125 88.96484375 -0.140625 C89.91866943 -0.1499707 90.87249512 -0.15931641 91.85522461 -0.16894531 C95.03599439 0.24984122 96.94133448 1.38390479 99.5625 3.1875 C99.0075734 7.53596093 97.95416014 10.89069801 95.97265625 14.79296875 C95.44051514 15.84959717 94.90837402 16.90622559 94.36010742 17.99487305 C93.78752197 19.11031494 93.21493652 20.22575684 92.625 21.375 C91.74581909 23.10907104 91.74581909 23.10907104 90.84887695 24.87817383 C87.36216605 31.73440723 83.8284415 38.56620889 80.25 45.375 C79.85337158 46.13079346 79.45674316 46.88658691 79.0480957 47.6652832 C77.12093984 51.3153268 75.15073059 54.9308509 73.09765625 58.51171875 C72.71198486 59.19661377 72.32631348 59.88150879 71.92895508 60.5871582 C71.20867814 61.86154279 70.47378745 63.12782936 69.72143555 64.38354492 C68.6118611 66.2660363 68.6118611 66.2660363 67.5625 69.1875 C68.7441593 72.85598036 70.5300931 76.25137563 72.25 79.6953125 C72.77883789 80.75500244 73.30767578 81.81469238 73.85253906 82.90649414 C74.41682617 84.03047607 74.98111328 85.15445801 75.5625 86.3125 C76.14483398 87.47450928 76.72716797 88.63651855 77.32714844 89.83374023 C80.76401416 96.67027819 84.24309323 103.48171807 87.8125 110.25 C88.20808105 111.00200684 88.60366211 111.75401367 89.01123047 112.52880859 C91.0249745 116.33955967 93.07744167 120.12402597 95.1796875 123.88671875 C95.60088867 124.65169678 96.02208984 125.4166748 96.45605469 126.20483398 C97.2488995 127.64229746 98.05338842 129.07343097 98.87207031 130.49633789 C101.28396269 134.89381683 101.97508169 138.05019247 101.5625 143.1875 C96.39929189 146.42932681 90.17210182 145.52124963 84.29077148 145.50317383 C82.13538984 145.50001523 79.98138387 145.52348427 77.82617188 145.54882812 C76.44791839 145.55110156 75.06966123 145.55180441 73.69140625 145.55078125 C72.44431885 145.55376221 71.19723145 145.55674316 69.91235352 145.55981445 C66.2035097 145.14760056 64.56859065 144.34225187 61.5625 142.1875 C60.08805847 140.08039856 60.08805847 140.08039856 58.88354492 137.62426758 C58.19339546 136.24317558 58.19339546 136.24317558 57.48930359 134.83418274 C57.01201309 133.84347275 56.5347226 132.85276276 56.04296875 131.83203125 C55.53953445 130.81525803 55.03610016 129.7984848 54.51741028 128.75090027 C52.91499791 125.50694216 51.33234533 122.25378614 49.75 119 C48.66600257 116.79689133 47.58073089 114.59440914 46.49414062 112.39257812 C43.83544017 106.99806347 41.19289191 101.59586956 38.5625 96.1875 C31.44576458 109.55677269 31.44576458 109.55677269 24.6640625 123.09765625 C24.37110291 123.69855072 24.07814331 124.29944519 23.77630615 124.91854858 C22.60918752 127.31477298 21.44426413 129.71192088 20.29638672 132.11743164 C19.42994025 133.92864073 18.54725523 135.73205379 17.6640625 137.53515625 C17.16213379 138.57679932 16.66020508 139.61844238 16.14306641 140.69165039 C14.40068787 143.44301521 13.64645792 144.25918997 10.5625 145.1875 C6.40948517 145.58274054 2.26086694 145.55911995 -1.90966797 145.55810547 C-3.93151596 145.56248703 -5.95119292 145.59885626 -7.97265625 145.63671875 C-9.88884766 145.64251953 -9.88884766 145.64251953 -11.84375 145.6484375 C-13.01228516 145.65665527 -14.18082031 145.66487305 -15.38476562 145.67333984 C-19.01360906 145.09581278 -20.17000989 144.00233935 -22.4375 141.1875 C-20.13023494 133.22616782 -16.48058445 126.30179806 -12.5 119.0625 C-11.48837695 117.20347362 -10.47948684 115.34298269 -9.47088623 113.48231506 C-8.78939635 112.22517814 -8.10714428 110.9684541 -7.4241333 109.71214294 C-3.65300651 102.76732978 -0.01303697 95.75524843 3.61694336 88.73583984 C4.06561768 87.87039551 4.51429199 87.00495117 4.9765625 86.11328125 C5.61126465 84.87505615 5.61126465 84.87505615 6.25878906 83.61181641 C7.14472129 81.96438063 8.08717018 80.34637015 9.07714844 78.75927734 C9.55442383 77.98664551 10.03169922 77.21401367 10.5234375 76.41796875 C10.96220215 75.74531982 11.4009668 75.0726709 11.85302734 74.37963867 C13.18412767 70.26678603 10.88303122 66.86207745 9.1171875 63.14575195 C8.28574219 61.55186646 8.28574219 61.55186646 7.4375 59.92578125 C6.98266739 59.04962158 6.98266739 59.04962158 6.51864624 58.15576172 C5.53745696 56.26828978 4.55007601 54.38413683 3.5625 52.5 C2.88196655 51.1937898 2.20179318 49.88739194 1.52197266 48.58081055 C-2.31749427 41.20898599 -6.1865901 33.85271771 -10.0625 26.5 C-11.19550431 24.34564113 -12.32833351 22.19119045 -13.4609375 20.03662109 C-14.35178111 18.34980873 -15.25344815 16.66872379 -16.15625 14.98828125 C-16.6203125 14.10527344 -17.084375 13.22226563 -17.5625 12.3125 C-17.93632813 11.61382812 -18.31015625 10.91515625 -18.6953125 10.1953125 C-19.61381568 7.7105197 -19.7064556 5.81632412 -19.4375 3.1875 C-14.60756165 -1.64243835 -6.34832547 0.00332199 0 0 Z " fill="#FEFEFE" transform="translate(540.4375,89.8125)"/>
<path d="M0 0 C5.70550051 3.21566051 9.55450087 7.7885026 11.625 14 C12.2971567 21.43779954 12.24867329 27.88526047 7.625 34 C3.24758874 38.97845477 -1.82629958 41.88714895 -8.375 43 C-15.84799006 43.27849652 -22.55616978 41.49635122 -28.1328125 36.390625 C-33.35553359 30.68852372 -34.86426523 25.19075859 -34.69140625 17.52734375 C-33.88163562 11.05917591 -30.35464749 6.07425704 -25.375 2 C-17.68447305 -3.46762405 -8.55804596 -3.80214391 0 0 Z M-24.9140625 9.765625 C-28.33676978 14.62242751 -29.13324445 18.12360551 -28.375 24 C-26.61848793 28.65475698 -25.47236494 29.9269763 -21.375 33 C-21.375 24.75 -21.375 16.5 -21.375 8 C-18.61125 8.12375 -15.8475 8.2475 -13 8.375 C-12.13068848 8.40899902 -11.26137695 8.44299805 -10.36572266 8.47802734 C-4.59722222 8.77777778 -4.59722222 8.77777778 -2.375 11 C-2.07421875 12.875 -2.07421875 12.875 -2.0625 15 C-2.04574219 15.70125 -2.02898438 16.4025 -2.01171875 17.125 C-2.13160156 17.74375 -2.25148438 18.3625 -2.375 19 C-3.365 19.66 -4.355 20.32 -5.375 21 C-3.92455729 25.10958767 -1.86389248 28.43258745 0.625 32 C4.87141941 26.79471169 5.9831174 24.20730902 5.90625 17.5390625 C5.35781999 12.5879582 2.62454217 9.90202586 -0.9375 6.6875 C-8.62117298 1.36803409 -18.8801876 2.8435147 -24.9140625 9.765625 Z M-15.375 13 C-15.375 14.65 -15.375 16.3 -15.375 18 C-13.065 18 -10.755 18 -8.375 18 C-7.78429986 16.05396726 -7.78429986 16.05396726 -7.375 14 C-8.55924326 12.58422523 -8.55924326 12.58422523 -11.9375 12.9375 C-13.6390625 12.9684375 -13.6390625 12.9684375 -15.375 13 Z M-15.375 23 C-15.375 26.3 -15.375 29.6 -15.375 33 C-17.355 33 -19.335 33 -21.375 33 C-18.18857093 36.18642907 -15.0259952 36.70270655 -10.703125 37.08203125 C-7.05404732 36.95345637 -4.57714886 35.70327067 -1.375 34 C-1.375 33.67 -1.375 33.34 -1.375 33 C-3.025 33 -4.675 33 -6.375 33 C-6.6225 32.278125 -6.87 31.55625 -7.125 30.8125 C-8.50641128 27.70432462 -10.04353254 25.47276852 -12.375 23 C-13.365 23 -14.355 23 -15.375 23 Z " fill="#FEFEFE" transform="translate(663.375,44)"/>
<path d="M0 0 C1.26749773 2.53499546 0.84396995 3.33781736 0.14453125 6.04296875 C-0.06389404 6.86240967 -0.27231934 7.68185059 -0.48706055 8.52612305 C-0.71820557 9.40437744 -0.94935059 10.28263184 -1.1875 11.1875 C-1.53325073 12.53485229 -1.53325073 12.53485229 -1.88598633 13.90942383 C-3.59461329 20.54059386 -5.36953437 27.1540728 -7.15234375 33.765625 C-8.21590255 37.82381251 -9.13582435 41.89516567 -10 46 C-9.09636719 45.71125 -8.19273437 45.4225 -7.26171875 45.125 C-6.08222656 44.75375 -4.90273438 44.3825 -3.6875 44 C-2.51574219 43.62875 -1.34398437 43.2575 -0.13671875 42.875 C3 42 3 42 6 42 C4.38730622 46.69312009 1.84739028 50.52240347 -0.875 54.625 C-1.87337894 56.14779341 -2.87073804 57.67125583 -3.8671875 59.1953125 C-4.3837793 59.98454102 -4.90037109 60.77376953 -5.43261719 61.58691406 C-7.99543316 65.53253292 -10.49687735 69.51634695 -13 73.5 C-18.59019181 82.38333297 -24.27714764 91.20167777 -30 100 C-31.11478214 96.65565359 -30.89359778 95.83358471 -29.93603516 92.56030273 C-29.67891754 91.66605087 -29.42179993 90.77179901 -29.15689087 89.85044861 C-28.87050751 88.88788651 -28.58412415 87.9253244 -28.2890625 86.93359375 C-28.00147064 85.94375992 -27.71387878 84.95392609 -27.41757202 83.93409729 C-26.49472947 80.76616039 -25.55976713 77.60193625 -24.625 74.4375 C-24.00185926 72.30034726 -23.37945418 70.16297988 -22.7578125 68.02539062 C-22.16471504 65.99460098 -21.57098632 63.96399556 -20.9765625 61.93359375 C-20.6942276 60.96900742 -20.4118927 60.00442108 -20.1210022 59.01060486 C-19.85758026 58.11950516 -19.59415833 57.22840546 -19.32275391 56.31030273 C-19.09101471 55.52437241 -18.85927551 54.73844208 -18.62051392 53.92869568 C-18 52 -18 52 -17 50 C-18.58941406 50.54140625 -18.58941406 50.54140625 -20.2109375 51.09375 C-21.59890499 51.56265793 -22.98692875 52.03139931 -24.375 52.5 C-25.07367188 52.73847656 -25.77234375 52.97695312 -26.4921875 53.22265625 C-31.7734375 55 -31.7734375 55 -34 55 C-32.3159994 50.05569592 -29.55705401 45.92431342 -26.75 41.5625 C-26.22712402 40.74281738 -25.70424805 39.92313477 -25.16552734 39.07861328 C-24.03937293 37.313586 -22.91154605 35.54962494 -21.78222656 33.78662109 C-19.94932583 30.92076781 -18.12582562 28.04912187 -16.3046875 25.17578125 C-15.07821181 23.24213244 -13.85165109 21.30853755 -12.625 19.375 C-12.05491211 18.47595947 -11.48482422 17.57691895 -10.89746094 16.65063477 C-7.33634723 11.05140266 -3.70517577 5.50497621 0 0 Z " fill="#238547" transform="translate(337,92)"/>
<path d="M0 0 C3.3 0 6.6 0 10 0 C14.455 11.385 14.455 11.385 19 23 C20.98 16.07 22.96 9.14 25 2 C24.01 1.67 23.02 1.34 22 1 C22 0.67 22 0.34 22 0 C25.96 0 29.92 0 34 0 C32.8385144 0.76812012 32.8385144 0.76812012 31.65356445 1.55175781 C28.49172932 4.46894272 27.59177755 7.14088762 26.54296875 11.171875 C26.35027908 11.8542926 26.15758942 12.53671021 25.95906067 13.23980713 C25.35165234 15.40559392 24.76933164 17.5772187 24.1875 19.75 C23.77833435 21.22571657 23.36754372 22.70098362 22.95507812 24.17578125 C21.95119235 27.77884291 20.96967778 31.38756196 20 35 C19.01 35 18.02 35 17 35 C13.7 26.75 10.4 18.5 7 10 C5.02 17.26 3.04 24.52 1 32 C1.99 32 2.98 32 4 32 C4 32.66 4 33.32 4 34 C0.04 34 -3.92 34 -8 34 C-7 32 -7 32 -5.05761719 31.20874023 C-2.15764813 29.50516325 -1.97017971 27.85703753 -1.078125 24.66015625 C-0.77519531 23.59732422 -0.47226562 22.53449219 -0.16015625 21.43945312 C0.14019531 20.32505859 0.44054687 19.21066406 0.75 18.0625 C1.06582031 16.95197266 1.38164062 15.84144531 1.70703125 14.69726562 C3.40836746 8.93235327 3.40836746 8.93235327 4 3 C2.68 2.34 1.36 1.68 0 1 C0 0.67 0 0.34 0 0 Z " fill="#FEFEFE" transform="translate(399,284)"/>
<path d="M0 0 C8.91 0 17.82 0 27 0 C26.34 2.97 25.68 5.94 25 9 C24.34 9 23.68 9 23 9 C22.71125 8.195625 22.4225 7.39125 22.125 6.5625 C21.26737432 3.8673532 21.26737432 3.8673532 19 3 C15.99525503 2.86440682 13.00931153 2.95700984 10 3 C8.68 6.96 7.36 10.92 6 15 C10.55052913 13.63460901 10.55052913 13.63460901 15 12 C15.33 11.34 15.66 10.68 16 10 C16.66 10 17.32 10 18 10 C17.52060632 14.71403788 17.03165952 18.66579301 15 23 C14.34 23 13.68 23 13 23 C13 21.35 13 19.7 13 18 C10.36 17.67 7.72 17.34 5 17 C3.43098141 23.98533796 3.43098141 23.98533796 2 31 C2.99 31.33 3.98 31.66 5 32 C5 32.66 5 33.32 5 34 C0.38 34 -4.24 34 -9 34 C-9 33.34 -9 32.68 -9 32 C-8.37891357 31.77417236 -7.75782715 31.54834473 -7.11791992 31.31567383 C-4.28228247 29.55414642 -4.02961478 28.12349137 -3.11328125 24.94921875 C-2.81486328 23.94052734 -2.51644531 22.93183594 -2.20898438 21.89257812 C-1.91314453 20.83490234 -1.61730469 19.77722656 -1.3125 18.6875 C-1.00505859 17.64142578 -0.69761719 16.59535156 -0.38085938 15.51757812 C0.9239471 11.03212743 2.13437574 6.59294936 3 2 C2.01 1.67 1.02 1.34 0 1 C0 0.67 0 0.34 0 0 Z " fill="#FEFEFE" transform="translate(195,284)"/>
<path d="M0 0 C0.66 4.29 1.32 8.58 2 13 C2.54269531 12.0615625 3.08539063 11.123125 3.64453125 10.15625 C4.36660923 8.9371573 5.08929719 7.71842575 5.8125 6.5 C6.16892578 5.87996094 6.52535156 5.25992187 6.89257812 4.62109375 C7.84631767 3.0286112 8.91697393 1.50753916 10 0 C10.99 0 11.98 0 13 0 C13.66 5.28 14.32 10.56 15 16 C15.804375 14.9275 16.60875 13.855 17.4375 12.75 C17.88996094 12.14671875 18.34242188 11.5434375 18.80859375 10.921875 C20.69816811 7.87377471 21.12539739 5.78821218 20.5625 2.25 C20.376875 1.5075 20.19125 0.765 20 0 C22.475 0.495 22.475 0.495 25 1 C25 9.17736446 20.96108952 13.78416021 16 20 C15.48179687 20.76828125 14.96359375 21.5365625 14.4296875 22.328125 C13.95789063 22.87984375 13.48609375 23.4315625 13 24 C12.01 24 11.02 24 10 24 C9.34 19.38 8.68 14.76 8 10 C5.36 14.62 2.72 19.24 0 24 C-0.99 24 -1.98 24 -3 24 C-3.03963867 23.43490723 -3.07927734 22.86981445 -3.12011719 22.28759766 C-3.31047082 19.7314954 -3.52985333 17.17870137 -3.75 14.625 C-3.811875 13.73554688 -3.87375 12.84609375 -3.9375 11.9296875 C-4.01484375 11.07890625 -4.0921875 10.228125 -4.171875 9.3515625 C-4.2347168 8.56604004 -4.29755859 7.78051758 -4.36230469 6.97119141 C-4.83036588 4.79913015 -4.83036588 4.79913015 -7.05175781 3.72802734 C-7.69467773 3.48777832 -8.33759766 3.2475293 -9 3 C-9 2.34 -9 1.68 -9 1 C-5.72921858 0.03087958 -3.60964568 0 0 0 Z " fill="#FEFEFE" transform="translate(464,295)"/>
<path d="M0 0 C0.76699219 0.0515625 1.53398437 0.103125 2.32421875 0.15625 C1.80867996 6.65475211 0.85754166 12.81851532 -0.67578125 19.15625 C5.36268208 13.45325685 8.65081981 7.90910693 11.32421875 0.15625 C12.97421875 0.15625 14.62421875 0.15625 16.32421875 0.15625 C15.00421875 6.09625 13.68421875 12.03625 12.32421875 18.15625 C13.31421875 17.82625 14.30421875 17.49625 15.32421875 17.15625 C14.07445119 20.80941671 13.65323122 21.93690836 10.32421875 24.15625 C9.00421875 24.15625 7.68421875 24.15625 6.32421875 24.15625 C5.99421875 22.17625 5.66421875 20.19625 5.32421875 18.15625 C4.60234375 18.960625 3.88046875 19.765 3.13671875 20.59375 C0.29400333 23.1837796 -0.9150051 23.9529648 -4.67578125 24.15625 C-5.33578125 23.82625 -5.99578125 23.49625 -6.67578125 23.15625 C-7.10343542 16.74143742 -5.53321293 11.27029596 -3.67578125 5.15625 C-4.66578125 5.81625 -5.65578125 6.47625 -6.67578125 7.15625 C-7.00578125 6.49625 -7.33578125 5.83625 -7.67578125 5.15625 C-3.3344351 0.19471154 -3.3344351 0.19471154 0 0 Z " fill="#FEFEFE" transform="translate(269.67578125,294.84375)"/>
<path d="M0 0 C1.67641098 4.09086452 0.2409319 7.71511018 -0.9375 11.75 C-1.13279297 12.44738281 -1.32808594 13.14476562 -1.52929688 13.86328125 C-2.0108246 15.57798973 -2.50425157 17.28934877 -3 19 C3.93271162 13.95802791 6.56009312 8.13302295 9 0 C10.65 0 12.3 0 14 0 C12.75297849 6.35450323 11.42635741 12.68327435 10 19 C10.33 18.34 10.66 17.68 11 17 C11.99 17 12.98 17 14 17 C12.6190998 20.33717549 11.1798762 22.22301036 8 24 C5.75 23.6875 5.75 23.6875 4 23 C3.67 21.68 3.34 20.36 3 19 C2.113125 19.845625 1.22625 20.69125 0.3125 21.5625 C-2.6008348 24.02603251 -2.6008348 24.02603251 -5.875 23.8125 C-6.57625 23.544375 -7.2775 23.27625 -8 23 C-9.51553092 19.02549507 -8.49888623 15.79518851 -7.5625 11.75 C-7.27503906 10.48671875 -6.98757812 9.2234375 -6.69140625 7.921875 C-6.46324219 6.95765625 -6.23507813 5.9934375 -6 5 C-6.99 5.66 -7.98 6.32 -9 7 C-8.02086745 1.32103121 -5.73500486 -0.46500039 0 0 Z M4 16 C5 18 5 18 5 18 Z " fill="#FEFEFE" transform="translate(230,295)"/>
<path d="M0 0 C6.27 0 12.54 0 19 0 C18.67 2.64 18.34 5.28 18 8 C17.34 8 16.68 8 16 8 C16 6.68 16 5.36 16 4 C13.03 3.67 10.06 3.34 7 3 C6.34 5.97 5.68 8.94 5 12 C8.72614153 10.88145414 8.72614153 10.88145414 11 8 C11.66 8 12.32 8 13 8 C12 15.42857143 12 15.42857143 11 19 C10.34 19 9.68 19 9 19 C9 17.68 9 16.36 9 15 C7.35 14.67 5.7 14.34 4 14 C2.515 19.445 2.515 19.445 1 25 C7.60950926 24.43977315 7.60950926 24.43977315 12.69921875 20.921875 C13.12847656 20.28765625 13.55773437 19.6534375 14 19 C14.66 19 15.32 19 16 19 C15.125 24.75 15.125 24.75 14 27 C7.07 27 0.14 27 -7 27 C-7 26.34 -7 25.68 -7 25 C-6.01 24.67 -5.02 24.34 -4 24 C-3.02033279 21.7991493 -3.02033279 21.7991493 -2.39453125 19.08984375 C-2.13349609 18.10048828 -1.87246094 17.11113281 -1.60351562 16.09179688 C-1.34248047 15.05087891 -1.08144531 14.00996094 -0.8125 12.9375 C-0.40354492 11.37032227 -0.40354492 11.37032227 0.01367188 9.77148438 C0.68720192 7.18371104 1.34871567 4.59344518 2 2 C1.34 2 0.68 2 0 2 C0 1.34 0 0.68 0 0 Z " fill="#FEFEFE" transform="translate(158,239)"/>
<path d="M0 0 C2.5 1.375 2.5 1.375 4 4 C4.93075945 9.09701603 4.76799675 13.53714896 1.875 17.9375 C-1.64978882 22.13556309 -5.16247266 23.80991096 -10.625 24.375 C-15.71755725 23.80916031 -15.71755725 23.80916031 -18 21 C-19.54447145 15.30476152 -19.14941433 11.88603089 -16.25 6.76171875 C-12.07055907 0.87131919 -6.9966856 -0.92643861 0 0 Z M-8.5 3.9375 C-11.57732214 7.70721962 -13.17447825 11.20328414 -14 16 C-13.58184478 18.97514011 -13.58184478 18.97514011 -12 21 C-11.01 21.33 -10.02 21.66 -9 22 C-4.35475356 19.21285214 -2.63871679 16.08864686 -1 11 C-0.58168596 7.28999282 -0.58168596 7.28999282 -1 4 C-1.66 3.34 -2.32 2.68 -3 2 C-6.13194168 1.69371417 -6.13194168 1.69371417 -8.5 3.9375 Z " fill="#FEFEFE" transform="translate(448,295)"/>
<path d="M0 0 C2 3 2 3 1.9375 5.4375 C0.62502179 9.02494043 -0.70081553 10.04742144 -4 12 C-7.3041347 12.89423829 -10.61536326 13.50051963 -14 14 C-13.34 15.65 -12.68 17.3 -12 19 C-7.4681066 19.30899273 -5.44414008 18.95212007 -2 16 C-1.34 16 -0.68 16 0 16 C-0.0625 17.75 -0.0625 17.75 -1 20 C-5.70418145 23.38701065 -9.06498427 24.89585143 -15 24 C-17.4375 22.5625 -17.4375 22.5625 -19 20 C-20.03445598 15.03265949 -19.38158046 11.02165569 -16.875 6.625 C-12.4505158 0.40345639 -7.27979557 -0.72797956 0 0 Z M-10.66796875 5.62109375 C-12.29774631 7.30822418 -12.82701599 8.66471585 -13 11 C-9.49588735 10.6814443 -7.4159895 10.30932553 -4.5625 8.1875 C-2.73121685 6.13826954 -2.73121685 6.13826954 -3.25 3.75 C-3.4975 3.1725 -3.745 2.595 -4 2 C-6.98241517 2 -8.48823432 3.75956873 -10.66796875 5.62109375 Z " fill="#FEFEFE" transform="translate(327,295)"/>
<path d="M0 0 C1.08667969 0.02707031 2.17335938 0.05414063 3.29296875 0.08203125 C4.54013672 0.13423828 4.54013672 0.13423828 5.8125 0.1875 C5.4825 2.8275 5.1525 5.4675 4.8125 8.1875 C3.8225 8.1875 2.8325 8.1875 1.8125 8.1875 C1.1525 6.5375 0.4925 4.8875 -0.1875 3.1875 C-1.1775 3.1875 -2.1675 3.1875 -3.1875 3.1875 C-2.67797288 7.64586229 -0.98994599 9.77201895 1.8125 13.1875 C3.00543576 15.91421031 2.88951684 16.91794107 2.0625 19.8125 C0.8125 22.1875 0.8125 22.1875 -2.1875 24.1875 C-5.10546875 24.3828125 -5.10546875 24.3828125 -8.375 24.3125 C-9.46167969 24.29445313 -10.54835938 24.27640625 -11.66796875 24.2578125 C-12.91513672 24.22300781 -12.91513672 24.22300781 -14.1875 24.1875 C-13.6925 19.7325 -13.6925 19.7325 -13.1875 15.1875 C-12.5275 15.1875 -11.8675 15.1875 -11.1875 15.1875 C-10.960625 15.991875 -10.73375 16.79625 -10.5 17.625 C-10.066875 18.470625 -9.63375 19.31625 -9.1875 20.1875 C-6.63974694 21.08136164 -6.63974694 21.08136164 -4.1875 21.1875 C-3.22125833 19.50921592 -3.22125833 19.50921592 -3.1875 17.1875 C-4.43150487 15.74707331 -5.67924514 14.30934122 -6.9609375 12.90234375 C-9.212619 9.75429222 -9.1875 7.01319141 -9.1875 3.1875 C-6.81432664 -0.49300043 -4.11295148 -0.13267585 0 0 Z " fill="#FEFEFE" transform="translate(372.1875,294.8125)"/>
<path d="M0 0 C0 1.65 0 3.3 0 5 C0.721875 4.154375 1.44375 3.30875 2.1875 2.4375 C5 0 5 0 7.8125 0.1875 C8.534375 0.455625 9.25625 0.72375 10 1 C9.67 2.65 9.34 4.3 9 6 C7.68 6.33 6.36 6.66 5 7 C5 6.34 5 5.68 5 5 C-0.67762718 10.04677971 -3.35607736 15.94953963 -6 23 C-7.65 23 -9.3 23 -11 23 C-9.33333333 16.33333333 -7.66666667 9.66666667 -6 3 C-6.99 3 -7.98 3 -9 3 C-9 2.34 -9 1.68 -9 1 C-5.92677456 0.08941469 -3.19902639 -0.08886184 0 0 Z " fill="#FEFEFE" transform="translate(299,295)"/>
<path d="M0 0 C0.99 0 1.98 0 3 0 C2.67 1.65 2.34 3.3 2 5 C2.99 5.33 3.98 5.66 5 6 C4.67 6.99 4.34 7.98 4 9 C2.68 9 1.36 9 0 9 C-1.08318169 14.3212615 -2.152874 19.63486869 -3 25 C-1.68 24.34 -0.36 23.68 1 23 C-0.45205479 27.59817352 -0.45205479 27.59817352 -2.875 29.375 C-5.3334349 30.09806909 -6.61499846 29.85178626 -9 29 C-9.66268329 21.87615459 -7.25388064 15.69120815 -5 9 C-5.99 9 -6.98 9 -8 9 C-6.73786958 5.21360875 -5.34654649 4.95895404 -2 3 C-1.34 2.01 -0.68 1.02 0 0 Z " fill="#FEFEFE" transform="translate(257,289)"/>
<path d="M0 0 C1 1 1 1 1.375 3.3125 C1 6 1 6 -1.0625 8.25 C-4.44264226 10.26370177 -7.10657375 10.69463324 -11 11 C-10.67 12.32 -10.34 13.64 -10 15 C-6.62294375 14.46274105 -3.303314 13.88935377 0 13 C-1 16 -1 16 -3.6875 17.75 C-7.41464812 19.15647099 -9.21848157 19.11726681 -13 18 C-15 16 -15 16 -15.3125 12.6875 C-14.87860516 7.56754091 -13.27385949 5.30924448 -9.75 1.6875 C-6.28150815 -0.44089273 -4.00042442 -0.38465619 0 0 Z M-7.625 4.375 C-10.22363777 6.65718683 -10.22363777 6.65718683 -10 9 C-8.02 8.34 -6.04 7.68 -4 7 C-3.67 5.35 -3.34 3.7 -3 2 C-5.34281317 1.77636223 -5.34281317 1.77636223 -7.625 4.375 Z " fill="#FEFEFE" transform="translate(204,248)"/>
<path d="M0 0 C-1.32 6.27 -2.64 12.54 -4 19 C-3.67 18.34 -3.34 17.68 -3 17 C-2.01 17 -1.02 17 0 17 C-1.27568089 19.84574968 -2.41496289 22.18089981 -5 24 C-7.6875 23.6875 -7.6875 23.6875 -10 23 C-11.08062462 19.75812614 -10.96405231 19.10290139 -10.00390625 15.98828125 C-9.77509766 15.23095703 -9.54628906 14.47363281 -9.31054688 13.69335938 C-9.06369141 12.90767578 -8.81683594 12.12199219 -8.5625 11.3125 C-8.19801758 10.11657227 -8.19801758 10.11657227 -7.82617188 8.89648438 C-7.22520262 6.92860466 -6.6136095 4.96397505 -6 3 C-7.32 3 -8.64 3 -10 3 C-10 2.34 -10 1.68 -10 1 C-6.37900892 -0.1141511 -4.08844645 0 0 0 Z " fill="#FEFEFE" transform="translate(356,295)"/>
<path d="M0 0 C-2 8 -4 16 -6 24 C-5.01 23.67 -4.02 23.34 -3 23 C-4.0975223 25.99324263 -4.67682892 26.84610901 -7.625 28.25 C-8.40875 28.4975 -9.1925 28.745 -10 29 C-10.33 28.67 -10.66 28.34 -11 28 C-10.69276296 19.24374439 -7.74079295 11.2426061 -5 3 C-5.99 3 -6.98 3 -8 3 C-8 2.34 -8 1.68 -8 1 C-5.23735711 0.40267181 -2.83967231 0 0 0 Z " fill="#FEFEFE" transform="translate(189,238)"/>
<path d="M0 0 C2 2 2 2 2 6 C1.01 6.33 0.02 6.66 -1 7 C-1.33 5.68 -1.66 4.36 -2 3 C-5.67760274 4.14254662 -5.67760274 4.14254662 -8.3125 6.8125 C-9.09802451 9.31189617 -9.14472595 11.39493282 -9 14 C-7.15274948 14.69159401 -7.15274948 14.69159401 -5 15 C-4.01 14.34 -3.02 13.68 -2 13 C-1.01 13.33 -0.02 13.66 1 14 C-1.43020865 17.01345872 -2.71905931 17.93592581 -6.5625 18.8125 C-10 19 -10 19 -13 18 C-14.59799033 14.80401935 -14.36773555 11.47677244 -14 8 C-11.3156884 1.64241989 -6.80205752 -0.75578417 0 0 Z " fill="#FEFEFE" transform="translate(278,248)"/>
<path d="M0 0 C0.33 1.98 0.66 3.96 1 6 C-0.32 6 -1.64 6 -3 6 C-3 5.01 -3 4.02 -3 3 C-6.67760274 4.14254662 -6.67760274 4.14254662 -9.3125 6.8125 C-10.09802451 9.31189617 -10.14472595 11.39493282 -10 14 C-8.15274948 14.69159401 -8.15274948 14.69159401 -6 15 C-5.01 14.34 -4.02 13.68 -3 13 C-2.01 13.33 -1.02 13.66 0 14 C-2.38446045 16.95673096 -3.77367354 17.93937684 -7.5 18.9375 C-11 19 -11 19 -13.4375 18.0625 C-15.39079004 15.48415714 -15.67353596 13.34408139 -15.53125 10.13671875 C-14.56496744 6.25027344 -11.92873162 3.61764873 -9 1 C-6.04335481 -0.4783226 -3.25770263 -0.06032783 0 0 Z " fill="#FEFEFE" transform="translate(222,248)"/>
<path d="M0 0 C0.66 0 1.32 0 2 0 C1.67 1.65 1.34 3.3 1 5 C1.66 5 2.32 5 3 5 C3 5.99 3 6.98 3 8 C2.01 8.33 1.02 8.66 0 9 C-0.80563638 11.10584438 -0.80563638 11.10584438 -1.1875 13.5625 C-1.34605469 14.38878906 -1.50460938 15.21507812 -1.66796875 16.06640625 C-1.77753906 16.70449219 -1.88710937 17.34257812 -2 18 C-1.01 18 -0.02 18 1 18 C-0.0975223 20.99324263 -0.67682892 21.84610901 -3.625 23.25 C-4.40875 23.4975 -5.1925 23.745 -6 24 C-6.66 23.34 -7.32 22.68 -8 22 C-7.79296875 19.7578125 -7.79296875 19.7578125 -7.1875 17.125 C-6.99542969 16.26132812 -6.80335938 15.39765625 -6.60546875 14.5078125 C-6.08104005 12.33566265 -5.54906734 10.16604545 -5 8 C-5.66 8 -6.32 8 -7 8 C-7 7.34 -7 6.68 -7 6 C-6.21625 5.7525 -5.4325 5.505 -4.625 5.25 C-1.67682892 3.84610901 -1.0975223 2.99324263 0 0 Z " fill="#FEFEFE" transform="translate(233,243)"/>
<path d="M0 0 C0 0.99 0 1.98 0 3 C0.4125 2.505 0.825 2.01 1.25 1.5 C3 0 3 0 7 0 C6.67 1.65 6.34 3.3 6 5 C5.24332031 5.03996094 4.48664063 5.07992187 3.70703125 5.12109375 C0.74422292 5.77236029 0.74422292 5.77236029 -0.80078125 8.72265625 C-1.29964844 9.82480469 -1.79851562 10.92695313 -2.3125 12.0625 C-2.82425781 13.16722656 -3.33601562 14.27195312 -3.86328125 15.41015625 C-4.23839844 16.26480469 -4.61351562 17.11945313 -5 18 C-6.32 18 -7.64 18 -9 18 C-7.9318153 12.88634986 -6.76892524 7.92772031 -5 3 C-5.99 3 -6.98 3 -8 3 C-8 2.34 -8 1.68 -8 1 C-5.10765685 0.17361624 -3.11257569 0 0 0 Z " fill="#FEFEFE" transform="translate(245,248)"/>
<path d="M0 0 C-0.144375 0.68707031 -0.28875 1.37414062 -0.4375 2.08203125 C-0.623125 2.98308594 -0.80875 3.88414062 -1 4.8125 C-1.185625 5.70582031 -1.37125 6.59914062 -1.5625 7.51953125 C-2.08684843 10.07260693 -2.08684843 10.07260693 -2 13 C-1.34 13 -0.68 13 0 13 C-1.0975223 15.99324263 -1.67682892 16.84610901 -4.625 18.25 C-5.40875 18.4975 -6.1925 18.745 -7 19 C-7.33 18.67 -7.66 18.34 -8 18 C-7.85665573 12.76242091 -6.88208784 7.89342839 -5 3 C-5.99 3 -6.98 3 -8 3 C-8 2.34 -8 1.68 -8 1 C-5.10765685 0.17361624 -3.11257569 0 0 0 Z " fill="#FEFEFE" transform="translate(261,248)"/>
<path d="M0 0 C0 0.66 0 1.32 0 2 C-0.99 2.66 -1.98 3.32 -3 4 C-2.690625 5.1446875 -2.690625 5.1446875 -2.375 6.3125 C-2 9 -2 9 -4 12 C-5.32 11.67 -6.64 11.34 -8 11 C-8.6875 9.3125 -8.6875 9.3125 -9 7 C-6.94215069 2.67851644 -5.09383433 0 0 0 Z " fill="#FEFEFE" transform="translate(176,283)"/>
<path d="M0 0 C1.32 0 2.64 0 4 0 C4.8125 2.6875 4.8125 2.6875 5 6 C2.48598399 9.14252002 0.8303089 10.72323037 -3 12 C-3 11.01 -3 10.02 -3 9 C-2.34 8.67 -1.68 8.34 -1 8 C-1.020625 6.865625 -1.04125 5.73125 -1.0625 4.5625 C-1 1 -1 1 0 0 Z " fill="#FEFEFE" transform="translate(502,283)"/>
<path d="M0 0 C1.65 0.33 3.3 0.66 5 1 C5.375 3.6875 5.375 3.6875 5 7 C3.18573316 9.16704095 1.38051466 10.38125003 -1 12 C-1.66 12 -2.32 12 -3 12 C-2 10 -1 8 0 6 C-0.165 5.34 -0.33 4.68 -0.5 4 C-1 2 -1 2 0 0 Z " fill="#FEFEFE" transform="translate(513,283)"/>
<path d="M0 0 C-0.33 0.99 -0.66 1.98 -1 3 C-1.66 3 -2.32 3 -3 3 C-2.67 5.31 -2.34 7.62 -2 10 C-3.875 11.0625 -3.875 11.0625 -6 12 C-6.66 11.67 -7.32 11.34 -8 11 C-8.375 8.3125 -8.375 8.3125 -8 5 C-5.87314885 2.45959445 -3.46631397 0 0 0 Z " fill="#FEFEFE" transform="translate(187,283)"/>
<path d="M0 0 C1.65 0.33 3.3 0.66 5 1 C5 2.32 5 3.64 5 5 C3.68 5.33 2.36 5.66 1 6 C-0.0625 4.125 -0.0625 4.125 -1 2 C-0.67 1.34 -0.34 0.68 0 0 Z " fill="#FEFEFE" transform="translate(353,285)"/>
<path d="M0 0 C0.99 0.66 1.98 1.32 3 2 C2.67 2.99 2.34 3.98 2 5 C0.68 5 -0.64 5 -2 5 C-2 3.68 -2 2.36 -2 1 C-1.34 0.67 -0.68 0.34 0 0 Z " fill="#FEFEFE" transform="translate(260,240)"/>
</svg>
